<svg width="32" height="32" viewBox="0 0 32 32" fill="none" xmlns="http://www.w3.org/2000/svg">
  <defs>
    <linearGradient id="vaultGradient" x1="0%" y1="0%" x2="100%" y2="100%">
      <stop offset="0%" style="stop-color:#6366f1;stop-opacity:1" />
      <stop offset="50%" style="stop-color:#8b5cf6;stop-opacity:1" />
      <stop offset="100%" style="stop-color:#06b6d4;stop-opacity:1" />
    </linearGradient>
    <linearGradient id="lockGradient" x1="0%" y1="0%" x2="100%" y2="100%">
      <stop offset="0%" style="stop-color:#fbbf24;stop-opacity:1" />
      <stop offset="100%" style="stop-color:#f59e0b;stop-opacity:1" />
    </linearGradient>
    <filter id="dropShadow" x="-50%" y="-50%" width="200%" height="200%">
      <feDropShadow dx="1" dy="1" stdDeviation="1" flood-color="#000000" flood-opacity="0.3"/>
    </filter>
  </defs>
  
  <!-- Vault Background -->
  <rect width="32" height="32" rx="8" fill="url(#vaultGradient)" filter="url(#dropShadow)"/>
  
  <!-- Vault Door -->
  <circle cx="16" cy="16" r="10" fill="#ffffff" opacity="0.95" stroke="url(#vaultGradient)" stroke-width="1.5"/>
  
  <!-- Lock Mechanism -->
  <circle cx="16" cy="16" r="7" fill="none" stroke="url(#vaultGradient)" stroke-width="0.8" opacity="0.6"/>
  <circle cx="16" cy="16" r="4.5" fill="none" stroke="url(#vaultGradient)" stroke-width="0.6" opacity="0.4"/>
  
  <!-- Central Lock -->
  <circle cx="16" cy="16" r="2.5" fill="url(#lockGradient)"/>
  <circle cx="16" cy="16" r="1.2" fill="#ffffff" opacity="0.9"/>
  
  <!-- Vault Spokes -->
  <g stroke="url(#vaultGradient)" stroke-width="1" opacity="0.7" fill="none">
    <line x1="16" y1="8" x2="16" y2="10.5" stroke-linecap="round"/>
    <line x1="16" y1="21.5" x2="16" y2="24" stroke-linecap="round"/>
    <line x1="24" y1="16" x2="21.5" y2="16" stroke-linecap="round"/>
    <line x1="10.5" y1="16" x2="8" y2="16" stroke-linecap="round"/>
  </g>
  
  <!-- Corner Accent Dots -->
  <circle cx="6" cy="6" r="1" fill="url(#lockGradient)" opacity="0.6"/>
  <circle cx="26" cy="6" r="1" fill="url(#lockGradient)" opacity="0.6"/>
  <circle cx="6" cy="26" r="1" fill="url(#lockGradient)" opacity="0.6"/>
  <circle cx="26" cy="26" r="1" fill="url(#lockGradient)" opacity="0.6"/>
</svg>
